<svg xmlns="http://www.w3.org/2000/svg" xmlns:xlink="http://www.w3.org/1999/xlink" version="1.1" id="Layer_1" x="0px" y="0px" width="70.834px" height="100px" viewBox="0 0 70.834 100" enable-background="new 0 0 70.834 100" xml:space="preserve">
<g>
	<path d="M23.611,12.499H25V12.5c0,4.602,3.731,8.333,8.334,8.333c4.602,0,8.333-3.731,8.333-8.333v-0.001h1.389   c0.768,0,1.389-0.621,1.389-1.389s-0.621-1.389-1.389-1.389h-0.003C41.67,9.706,43.048,0,33.334,0c-9.715,0-8.336,9.706-9.72,9.721   h-0.003c-0.768,0-1.389,0.622-1.389,1.389S22.844,12.499,23.611,12.499z M29.167,5.556h2.777V2.778h2.778v2.778H37.5v2.778h-2.777   v2.778h-2.778V8.333h-2.777V5.556z"/>
	<circle cx="63.89" cy="27.778" r="6.944"/>
	<path d="M18.089,47.9l-1.048-1.047c-0.628-0.629-1.497-1.02-2.457-1.02c-1.918,0-3.473,1.554-3.473,3.472   c0,0.96,0.391,1.83,1.021,2.458l1.329,1.329l0,0l1.442,1.443c0.04,0.041,0.087,0.07,0.131,0.107   c0.052,0.049,0.108,0.091,0.165,0.137c0.102,0.082,0.204,0.163,0.314,0.233c0.085,0.054,0.177,0.098,0.267,0.144   c0.095,0.05,0.189,0.103,0.29,0.144c0.122,0.05,0.252,0.084,0.383,0.119c0.079,0.021,0.155,0.052,0.238,0.068   c0.217,0.043,0.439,0.068,0.67,0.068c1.918,0,3.473-1.555,3.473-3.472v-4.719l-1.646-0.699L18.089,47.9z"/>
	<path d="M34.723,52.778c-0.749,0-2.11-0.418-2.11-0.418l-10.39-4.407v0.265v46.921c0,2.685,2.176,4.861,4.861,4.861   s4.86-2.177,4.86-4.861V62.5h1.39h1.389v32.639c0,2.685,2.176,4.861,4.861,4.861s4.86-2.177,4.86-4.861V51.446v-3.28   c-2.764,1.771-5.677,3.44-8.057,4.33C35.868,52.691,35.308,52.778,34.723,52.778z"/>
	<path d="M49.306,37.5c-1.918,0-3.472,1.554-3.472,3.472v5.556c0,0.236,0.024,0.464,0.069,0.686c0.001,0.003,0,0.006,0.001,0.008   l0,0c0.048,0.237,0.122,0.464,0.216,0.681c0.009,0.024,0.025,0.046,0.038,0.07c0.088,0.192,0.19,0.377,0.312,0.549   c0.006,0.007,0.013,0.014,0.017,0.021c0.272,0.379,0.618,0.697,1.018,0.94l0,0l0.001,0.001c0.239,0.146,0.497,0.258,0.77,0.342   c0.049,0.017,0.095,0.033,0.144,0.046C48.704,49.947,48.997,50,49.306,50c1.918,0,3.473-1.554,3.473-3.472v-0.746v-3.469v-1.34   C52.778,39.054,51.224,37.5,49.306,37.5z"/>
	<path d="M51.993,29.417c-1.251-3.071-4.065-5.806-8.938-5.806h-9.722h-9.723c-6.944,0-9.722,5.555-9.722,9.722v2.802   c-0.364,0.274-0.703,0.582-1.013,0.928l-11.11,12.5C0.627,50.846,0,52.479,0,54.167c0,3.829,3.116,6.945,6.944,6.945   c1.967,0,3.855-0.854,5.179-2.341l1.511-1.698c-0.238-0.179-0.479-0.356-0.695-0.572L11.61,55.17l-1.563,1.754   c-0.764,0.858-1.864,1.409-3.103,1.409c-2.3,0-4.166-1.867-4.166-4.167c0-1.062,0.409-2.021,1.064-2.757L13.89,40.107l1.064-1.198   c0.764-0.858,1.863-1.409,3.102-1.409c0.501,0,0.974,0.103,1.419,0.265c0,0,9.725,3.773,13.138,4.322   c1.028,0.166,7.726-2.78,13.46-8.514c1.005-1.006,2.394-1.629,3.928-1.629c1.007,0,1.938,0.289,2.752,0.757   c0.002,0.001,0.005,0.003,0.006,0.003c0.573,0.331,1.075,0.758,1.497,1.264c0.056,0.068,0.113,0.133,0.167,0.202   c0.104,0.14,0.203,0.281,0.296,0.43c0.105,0.169,0.199,0.346,0.286,0.526c0.061,0.127,0.118,0.252,0.17,0.385   c0.091,0.233,0.165,0.478,0.225,0.727c0.021,0.092,0.041,0.184,0.059,0.276c0.059,0.32,0.099,0.647,0.099,0.985v3.472v2.708   c0.044-0.034,0.075-0.058,0.093-0.072l0.127-0.1l0.115-0.117c1.575-1.574,2.443-3.667,2.443-5.892   C58.334,33.592,55.626,30.314,51.993,29.417z"/>
</g>
</svg>